<svg x="0" y="0" width="1980" height="990" viewBox="0 0 1980 990" xmlns="http://www.w3.org/2000/svg" xmlns:xlink="http://www.w3.org/1999/xlink" xmlns:fi="http://pattern.flaticon.com/"><rect x="0px" y="0px" width="100%" height="50%" opacity="1" fill="#ffffff"/><defs><g transform="matrix(0.1171877309679985 0 0 0.1171877309679985 114 -7)" id="L1_0"><path d="M436.906,436.969c-99.897,99.897-262.349,99.993-362.13,0.211  c-99.784-99.78-99.687-262.231,0.21-362.128C120.926,29.11,182.026,2.533,247.034,0.211c64.657-2.31,127.129,19.523,175.909,61.477  c9.374,8.062,14.959,19.665,15.416,32.025c0.456,12.36-4.259,24.359-13.01,33.11l-42.353,42.353  c-12.486,12.484-12.5,32.794-0.026,45.265c12.471,12.473,32.782,12.459,45.265-0.025l7.21-7.21  c12.261-12.261,30.527-16.29,46.789-10.313c16.262,5.976,27.559,20.861,28.941,38.137  C517.185,310.157,490.114,383.763,436.906,436.969z" fill="#ffd592"/><path d="M101.685,437.18C1.903,337.4,1.997,174.951,101.898,75.052C146.861,30.087,206.351,3.685,269.81,0.407   c-7.549-0.393-15.145-0.468-22.776-0.196c-65.008,2.323-126.108,28.9-172.049,74.842c-99.897,99.897-99.994,262.348-0.21,362.128   c53.271,53.271,124.405,78.065,194.345,74.412C208.15,508.417,148.128,483.625,101.685,437.18z" opacity="0.1"/><ellipse cx="323px" cy="98px" rx="39px" ry="39px" transform="matrix(-0.7476000189781189 -0.6642000079154968 0.6642000079154968 -0.7476000189781189 499.6578063964844 386.9299011230469)" fill="#ef3e3b"/><path d="M189.809,57.904c21.602-1.288,40.141,15.178,41.402,36.785c1.263,21.604-15.222,40.164-36.826,41.451  c-21.604,1.29-40.141-15.178-41.404-36.782C151.713,77.75,168.204,59.193,189.809,57.904z" fill="#4bc8dd"/><path d="M68.845,162.774c14.384-16.188,39.147-17.668,55.32-3.301c16.168,14.366,17.616,39.132,3.235,55.321  c-14.384,16.188-39.149,17.665-55.318,3.3C55.91,203.731,54.463,178.963,68.845,162.774z" fill="#ff8828"/><path d="M57.359,322.389c-1.267-21.606,15.22-40.164,36.826-41.454c21.604-1.287,40.141,15.181,41.404,36.787  c1.263,21.606-15.224,40.163-36.828,41.452C77.157,360.466,58.622,343.994,57.359,322.389z" fill="#22e0c3"/><path d="M162.075,443.245c-16.17-14.365-17.62-39.129-3.237-55.32c14.384-16.188,39.149-17.666,55.316-3.3  c16.172,14.366,17.618,39.13,3.239,55.32C203.009,456.137,178.244,457.613,162.075,443.245z" fill="#ffffff"/><path d="M321.655,454.551c-21.604,1.288-40.139-15.177-41.404-36.782  c-1.261-21.607,15.224-40.164,36.828-41.453c21.604-1.286,40.141,15.18,41.404,36.784  C359.746,434.703,343.259,453.262,321.655,454.551z" fill="#976ec6"/><ellipse cx="413px" cy="323px" rx="39px" ry="39px" transform="matrix(0.6642000079154968 -0.7476000189781189 0.7476000189781189 0.6642000079154968 -103.16439819335938 417.7037048339844)" fill="#4351b5"/><path d="M314.728,127.83c-16.17-14.365-17.62-39.131-3.237-55.321  c5.655-6.368,12.92-10.448,20.635-12.195c-13.492-3.073-28.208,1.11-38.055,12.195c-14.384,16.19-12.933,40.956,3.237,55.321  c9.811,8.715,22.78,11.589,34.68,8.894C325.777,135.309,319.826,132.358,314.728,127.83z" opacity="0.1"/><path d="M170.401,99.357c-1.139-19.425,12.076-36.375,30.454-40.54  c-3.537-0.806-7.241-1.14-11.045-0.913c-21.606,1.288-38.096,19.846-36.828,41.453c1.263,21.604,19.8,38.074,41.404,36.782  c2.182-0.13,4.308-0.445,6.374-0.912C184.212,131.46,171.442,117.156,170.401,99.357z" opacity="0.1"/><path d="M89.501,218.095c-16.172-14.363-17.618-39.131-3.237-55.32  c5.657-6.368,12.924-10.449,20.639-12.196c-13.492-3.074-28.208,1.111-38.059,12.196c-14.382,16.189-12.935,40.957,3.237,55.32  c9.811,8.715,22.782,11.589,34.681,8.894C100.551,225.574,94.599,222.624,89.501,218.095z" opacity="0.1"/><path d="M74.779,322.389c-1.139-19.424,12.074-36.376,30.454-40.541  c-3.537-0.807-7.243-1.14-11.047-0.913c-21.606,1.289-38.094,19.848-36.826,41.454c1.263,21.605,19.798,38.076,41.402,36.785  c2.182-0.131,4.306-0.445,6.37-0.912C88.587,354.493,75.82,340.188,74.779,322.389z" opacity="0.1"/><path d="M179.495,443.245c-16.17-14.365-17.62-39.129-3.237-55.32  c5.657-6.368,12.922-10.448,20.637-12.195c-13.492-3.074-28.208,1.111-38.057,12.195c-14.384,16.191-12.933,40.955,3.237,55.32  c9.811,8.718,22.782,11.592,34.681,8.897C190.544,450.725,184.593,447.774,179.495,443.245z" opacity="0.1"/><path d="M297.671,417.767c-1.135-19.424,12.078-36.375,30.454-40.54  c-3.537-0.806-7.241-1.14-11.045-0.913c-21.604,1.289-38.09,19.846-36.828,41.453c1.265,21.605,19.8,38.072,41.404,36.783  c2.182-0.13,4.308-0.445,6.374-0.912C311.483,449.869,298.714,435.568,297.671,417.767z" opacity="0.1"/><path d="M404.722,352.98c-16.172-14.366-17.618-39.131-3.235-55.32  c5.657-6.368,12.922-10.448,20.637-12.195c-13.492-3.074-28.208,1.11-38.057,12.195c-14.384,16.189-12.937,40.954,3.235,55.32  c9.811,8.716,22.782,11.589,34.681,8.895C415.771,360.46,409.82,357.508,404.722,352.98z" opacity="0.1"/><g><path d="M294.406,240.353h-77.341c-4.329,0-7.837-3.508-7.837-7.837c0-4.328,3.508-7.837,7.837-7.837h77.341   c4.329,0,7.837,3.509,7.837,7.837C302.242,236.845,298.734,240.353,294.406,240.353z" fill="#f9bd6e"/><path d="M274.799,269.986h-38.126c-4.329,0-7.837-3.508-7.837-7.837c0-4.328,3.508-7.837,7.837-7.837h38.126   c4.329,0,7.837,3.509,7.837,7.837C282.636,266.477,279.128,269.986,274.799,269.986z" fill="#f9bd6e"/><path d="M294.406,299.617h-77.341c-4.329,0-7.837-3.509-7.837-7.837c0-4.328,3.508-7.837,7.837-7.837h77.341   c4.329,0,7.837,3.509,7.837,7.837C302.242,296.11,298.734,299.617,294.406,299.617z" fill="#f9bd6e"/></g></g><g transform="matrix(0.1171872690320015 0 0 0.1171872690320015 -2.0000014305114746 79)" id="L1_1"><path d="M127.898,357.309l-14.211-6.622c-2.702-1.259-5.943-0.079-7.202,2.621l-14.634,31.365  c-1.26,2.7-0.08,5.939,2.622,7.199l14.209,6.622L127.898,357.309z" fill="#757575"/><path d="M403.674,298.734c0,5.958-4.878,10.832-10.841,10.832H120.097c-5.962,0-10.84-4.874-10.84-10.832  v-2.19c0-5.958,4.878-10.832,10.84-10.832h272.737c5.963,0,10.841,4.874,10.841,10.832v2.19H403.674z" fill="#d1d3d4"/><path d="M418.56,442.738c5.405-2.517,10.526,0.247,11.382,6.144l7.982,55.018  c0.855,5.896-1.692,7.083-5.663,2.638l-37.042-41.476c-3.97-4.446-2.796-10.144,2.609-12.662L418.56,442.738z" fill="#ef3e3b"/><path d="M436.336,492.953l-29.9-33.479c-3.361-3.765-3.022-8.421,0.44-11.29  l-9.048,4.216c-5.405,2.518-6.579,8.216-2.609,12.662l37.042,41.476c3.972,4.445,6.518,3.257,5.663-2.638L436.336,492.953z" opacity="0.1"/><path d="M411.536,406.347L305.674,179.47h-45.151l113.924,244.161c1.261,2.702,4.502,3.88,7.205,2.621  l27.264-12.704C411.617,412.286,412.797,409.047,411.536,406.347z" fill="#8c8c8c"/><path d="M385.598,423.631L271.674,179.47h-11.151l113.924,244.161  c1.261,2.702,4.502,3.88,7.205,2.621l4.312-2.008C385.836,424.043,385.7,423.851,385.598,423.631z" opacity="0.1"/><path d="M431.543,414.281c8.225,17.628,0.595,38.582-17.045,46.801c-17.638,8.219-38.604,0.594-46.83-17.034  c-8.223-17.628-0.592-38.582,17.044-46.801C402.353,389.027,423.319,396.655,431.543,414.281z" fill="#4351b5"/><path d="M420.034,455.845c-17.638,8.218-38.604,0.594-46.83-17.035  c-6.008-12.877-3.546-27.526,5.091-37.692c-12.947,9.806-17.77,27.621-10.627,42.931c8.226,17.627,29.192,25.253,46.83,17.034  c4.753-2.215,8.772-5.36,11.956-9.109C424.494,453.459,422.353,454.765,420.034,455.845z" opacity="0.1"/><g><path d="M412.999,422.925c3.45,7.392,0.249,16.177-7.148,19.624c-7.396,3.448-16.188,0.25-19.639-7.143   c-3.45-7.392-0.248-16.178,7.148-19.626C400.756,412.332,409.55,415.531,412.999,422.925z" fill="#d1d3d4"/><path d="M112.146,463.947 87.421,452.422 105.196,414.328 129.922,425.851z" fill="#d1d3d4"/></g><path d="M115.01,418.902 105.196,414.328 87.421,452.422 97.235,456.996z" opacity="0.1"/><path d="M207.256,179.47l-106.91,229.128c-1.26,2.7-0.08,5.939,2.622,7.199l27.263,12.705  c2.701,1.259,5.943,0.08,7.202-2.621L252.411,179.47H207.256z" fill="#8c8c8c"/><path d="M102.968,415.797l3.325,1.55L217.285,179.47h-10.029l-106.91,229.128  C99.086,411.298,100.266,414.537,102.968,415.797z" opacity="0.1"/><path d="M123.703,425.46l24.5-52.506c1.83-3.923,0.134-8.585-3.789-10.416  c-3.918-1.831-8.584-0.135-10.416,3.788l-24.501,52.509c-0.001,0.001-0.001,0.003-0.001,0.003L123.703,425.46z" fill="#757575"/><path d="M118.319,466.844c-1.259,2.701-4.009,6.639-6.108,8.754l-34.941,35.18  c-2.1,2.114-3.597,1.416-3.327-1.551l4.507-49.363c0.271-2.967,1.523-7.603,2.783-10.304l5.401-11.58  c1.261-2.701,4.502-3.88,7.205-2.621l27.266,12.704c2.702,1.259,3.882,4.498,2.623,7.2L118.319,466.844z" fill="#4351b5"/><path d="M89.175,459.863c0.271-2.967,1.523-7.603,2.783-10.304l5.401-11.58  c0.129-0.276,0.29-0.525,0.458-0.767l-3.979-1.853c-2.702-1.259-5.943-0.08-7.205,2.621l-5.401,11.58  c-1.259,2.701-2.512,7.337-2.783,10.304l-4.507,49.363c-0.271,2.967,1.227,3.665,3.327,1.551l7.991-8.047L89.175,459.863z" opacity="0.1"/><path d="M272.38,326.304c0,2.98-2.44,5.417-5.421,5.417h-20.988c-2.981,0-5.42-2.437-5.42-5.417v-57.327  c0-2.98,2.439-5.418,5.42-5.418h20.988c2.982,0,5.421,2.438,5.421,5.418V326.304z" fill="#ef3e3b"/><path d="M251.821,326.304v-57.327c0-2.98,2.439-5.418,5.419-5.418H245.97  c-2.981,0-5.42,2.438-5.42,5.418v57.327c0,2.98,2.439,5.417,5.42,5.417h11.269C254.26,331.721,251.821,329.284,251.821,326.304z" opacity="0.1"/><rect x="241px" y="46px" width="29px" height="47px" fill="#8c8c8c"/><rect x="241px" y="46px" width="11px" height="47px" opacity="0.1"/><path d="M280.479,58.201c0,2.979-2.44,5.418-5.422,5.418h-37.186c-2.98,0-5.421-2.439-5.421-5.418V5.418  c0-2.98,2.44-5.418,5.421-5.418h37.186c2.982,0,5.422,2.438,5.422,5.418V58.201z" fill="#ff675f"/><path d="M243.499,58.201V5.418c0-2.98,2.44-5.418,5.421-5.418h-11.049  c-2.98,0-5.421,2.438-5.421,5.418v52.783c0,2.979,2.44,5.418,5.421,5.418h11.048C245.939,63.619,243.499,61.18,243.499,58.201z" opacity="0.1"/><ellipse cx="256px" cy="149px" rx="63px" ry="63px" fill="#4351b5"/><ellipse cx="256px" cy="149px" rx="42px" ry="42px" fill="#d1d3d4"/><path d="M276.612,149.956c0,11.12-9.017,20.135-20.147,20.135c-11.126,0-20.146-9.015-20.146-20.135  c0-11.121,9.02-20.134,20.146-20.134C267.595,129.821,276.612,138.836,276.612,149.956z" fill="#4351b5"/><path d="M256.464,19.331c-4.329,0-7.837,3.508-7.837,7.837v36.451h15.673V27.167  C264.301,22.838,260.793,19.331,256.464,19.331z" fill="#ef3e3b"/><path d="M225.458,149.956c0-21.484,15.99-39.228,36.723-42.017  c-1.87-0.253-3.775-0.394-5.716-0.394c-23.437,0-42.437,18.988-42.437,42.411s19,42.411,42.437,42.411  c1.94,0,3.845-0.141,5.716-0.394C241.447,189.184,225.458,171.441,225.458,149.956z" opacity="0.1"/></g><g transform="matrix(0.1171875 0 0 0.1171875 52 -22)" id="L1_2"><path d="M508.952,78.798L433.233,3.092c-4.065-4.064-10.714-4.064-14.779,0l-48.21,48.202l90.495,90.484  l48.211-48.204C513.015,89.51,513.016,82.862,508.952,78.798z" fill="#ef3e3b"/><path d="M387.657,68.342l48.211-48.202c3.514-3.513,8.958-3.982,12.996-1.42  L433.233,3.092c-4.065-4.064-10.714-4.064-14.779,0l-48.21,48.202L387.657,68.342z" opacity="0.1"/><path d="M444.959,157.556 118.794,483.666 28.296,393.184 354.462,67.075z" fill="#ffd655"/><path d="M444.959,157.556 118.794,483.666 88.626,453.505 414.792,127.396z" fill="#fff297"/><path d="M384.627,97.235 58.461,423.345 28.296,393.184 354.462,67.075z" fill="#e8b600"/><path d="M131.353,437.177c-5.696-5.695-13.823-8.14-21.737-6.542c1.598-7.913-0.85-16.037-6.545-21.733  c-5.694-5.693-13.821-8.139-21.737-6.542c1.6-7.913-0.847-16.037-6.543-21.733c-9.205-9.201-24.3-9.316-33.636-0.271l-0.763,0.735  l-18.241,18.238c-0.745,0.746-1.255,1.697-1.459,2.73L8.179,464.973l38.813,38.805l62.927-12.51c1.032-0.206,1.983-0.714,2.728-1.46  l18.086-18.083c0.022-0.019,0.878-0.902,0.878-0.902C140.669,461.473,140.555,446.379,131.353,437.177z" fill="#ffd592"/><path d="M9.053,460.578l-8.951,45.007c-0.347,1.745,0.202,3.55,1.461,4.809s3.064,1.807,4.811,1.46  l45.014-8.948L9.053,460.578z" fill="#211756"/><path d="M38.351,413.598c0.204-1.034,0.715-1.984,1.46-2.73l329.25-329.195  l-14.6-14.597L22.151,399.328c-0.745,0.746-1.255,1.697-1.459,2.73L0.102,505.585c-0.347,1.745,0.202,3.55,1.461,4.809  s3.064,1.807,4.811,1.46l12.948-2.574L38.351,413.598z" opacity="0.1"/><path d="M327.935,77.027c4.423-4.419,11.657-4.419,16.078,0.001l90.992,90.976  c4.422,4.42,4.42,11.653,0,16.074l-0.659,0.657c-4.42,4.42-11.653,4.42-16.076,0l-90.992-90.976c-4.42-4.419-4.42-11.653,0-16.073  L327.935,77.027z" id="SVGCleanerId_0" fill="#d1d3d4"/><path d="M344.03,60.937c4.422-4.419,11.655-4.419,16.078,0.001l90.988,90.976  c4.422,4.42,4.422,11.652,0,16.073l-0.657,0.658c-4.42,4.42-11.653,4.42-16.076-0.001l-90.992-90.973  c-4.42-4.421-4.42-11.654,0-16.076L344.03,60.937z" fill="#e5e5e5"/><path d="M327.935,77.027c4.423-4.419,11.657-4.419,16.078,0.001l90.992,90.976   c4.422,4.42,4.42,11.653,0,16.074l-0.659,0.657c-4.42,4.42-11.653,4.42-16.076,0l-90.992-90.976c-4.42-4.419-4.42-11.653,0-16.073   L327.935,77.027z" id="SVGCleanerId_0_1_" fill="#d1d3d4"/><path d="M360.124,44.845c4.422-4.421,11.657-4.42,16.078-0.001l90.99,90.976  c4.422,4.42,4.422,11.653,0,16.073l-0.657,0.659c-4.422,4.42-11.655,4.42-16.078-0.001l-90.99-90.974  c-4.422-4.42-4.422-11.653-0.002-16.074L360.124,44.845z" fill="#d1d3d4"/><path d="M349.214,99.623l0.657-0.659c3.652-3.65,9.218-4.277,13.538-1.898  c-2.378-4.319-1.752-9.884,1.899-13.535l0.659-0.658c3.653-3.65,9.218-4.277,13.539-1.896c-2.381-4.319-1.755-9.885,1.895-13.536  l0.659-0.658c4.423-4.421,11.657-4.42,16.078-0.001l-21.937-21.937c-4.42-4.419-11.655-4.42-16.078,0.001l-0.659,0.658  c-3.651,3.651-4.278,9.217-1.895,13.536c-4.321-2.379-9.886-1.753-13.539,1.896l-0.659,0.658c-3.651,3.651-4.278,9.216-1.899,13.535  c-4.32-2.378-9.886-1.752-13.538,1.898l-0.657,0.659c-4.42,4.42-4.42,11.653,0,16.073l21.902,21.899  C344.796,111.235,344.806,104.03,349.214,99.623z" opacity="0.1"/></g><g transform="matrix(0.1171872690320015 0 0 0.1171872690320015 158 126)" id="L1_3"><path d="M403.617,22.369L382.885,1.635C381.838,0.588,380.418,0,378.937,0c-1.48,0-2.9,0.589-3.948,1.635  l-12.593,12.596c-1.055,1.054-2.459,1.634-3.949,1.634s-2.893-0.581-3.947-1.633L341.905,1.636c-1.089-1.09-2.517-1.634-3.946-1.634  c-1.427,0-2.858,0.544-3.946,1.634l-12.595,12.595c-1.056,1.054-2.459,1.634-3.949,1.634c-1.491,0-2.894-0.581-3.948-1.633  L300.927,1.636c-1.09-1.09-2.518-1.634-3.947-1.634c-1.428,0-2.857,0.544-3.947,1.634L280.44,14.232  c-1.055,1.054-2.458,1.634-3.948,1.634c-1.491,0-2.894-0.581-3.948-1.633L259.948,1.635C258.858,0.546,257.429,0,256.001,0  c-1.428,0-2.857,0.546-3.947,1.635L239.46,14.232c-1.056,1.054-2.46,1.634-3.949,1.634c-1.491,0-2.894-0.581-3.948-1.633  L218.968,1.636c-1.047-1.048-2.466-1.634-3.947-1.634c-1.48,0-2.9,0.587-3.947,1.634L198.48,14.232  c-1.055,1.054-2.458,1.634-3.949,1.634c-1.49,0-2.892-0.581-3.947-1.633L177.989,1.636c-1.088-1.09-2.517-1.634-3.944-1.634  c-1.429,0-2.858,0.544-3.947,1.634l-12.595,12.595c-1.055,1.054-2.46,1.634-3.949,1.634c-1.491,0-2.894-0.581-3.948-1.633  L137.011,1.636c-1.09-1.09-2.518-1.634-3.947-1.634c-1.427,0-2.857,0.544-3.947,1.634l-20.737,20.737  c-1.467,1.466-2,3.626-1.383,5.606c10.979,35.268,28.501,100.924,35.723,179.623h225.815  c6.826-73.045,22.921-136.408,36.463-179.618C405.619,26.002,405.087,23.838,403.617,22.369z" fill="#ffd592"/><path d="M382.885,1.635C381.838,0.588,380.418,0,378.937,0c-1.48,0-2.9,0.589-3.948,1.635l-12.593,12.596  c-1.055,1.054-2.459,1.634-3.949,1.634s-2.893-0.581-3.947-1.633L341.905,1.636c-1.089-1.09-2.517-1.634-3.946-1.634  c-1.427,0-2.858,0.544-3.946,1.634l-12.595,12.595c-1.056,1.054-2.459,1.634-3.949,1.634c-1.491,0-2.894-0.581-3.948-1.633  L300.927,1.636c-1.09-1.09-2.518-1.634-3.947-1.634c-1.428,0-2.857,0.544-3.947,1.634L280.44,14.232  c-1.055,1.054-2.458,1.634-3.948,1.634c-1.491,0-2.894-0.581-3.948-1.633L259.948,1.635C258.858,0.546,257.429,0,256.001,0  c-1.428,0-2.857,0.546-3.947,1.635L239.46,14.232c-1.056,1.054-2.46,1.634-3.949,1.634c-1.491,0-2.894-0.581-3.948-1.633  L218.968,1.636c-1.047-1.048-2.466-1.634-3.947-1.634c-1.48,0-2.9,0.587-3.947,1.634L198.48,14.232  c-1.055,1.054-2.458,1.634-3.949,1.634c-1.49,0-2.892-0.581-3.947-1.633L177.989,1.636c-1.088-1.09-2.517-1.634-3.944-1.634  c-1.429,0-2.858,0.544-3.947,1.634l-12.595,12.595c-1.055,1.054-2.46,1.634-3.949,1.634c-1.491,0-2.894-0.581-3.948-1.633  L137.011,1.636c-1.09-1.09-2.518-1.634-3.947-1.634c-1.427,0-2.857,0.544-3.947,1.634l-20.737,20.737  c-1.467,1.466-2,3.626-1.383,5.606c5.385,17.304,12.348,41.922,18.896,71.805h39.854c1.207,0,2.189,0.981,2.189,2.188v25.709  c0,6.937,5.642,12.581,12.58,12.581c6.938,0,12.581-5.643,12.581-12.581V90.487c0-0.451-0.033-0.945-0.101-1.507  c-0.021-0.189-0.019-0.378,0.006-0.564c1.155-8.331,8.368-14.612,16.778-14.612c8.115,0,15.113,5.777,16.644,13.745  c0.025,0.134,0.04,0.272,0.04,0.41v17.844c0,6.937,5.642,12.581,12.581,12.581s12.581-5.643,12.581-12.581v-3.829  c0-1.206,0.98-2.188,2.188-2.188h131.94c6.185-27.545,12.989-51.829,19.247-71.8c0.622-1.982,0.089-4.147-1.38-5.615L382.885,1.635z  " fill="#ff675f"/><path d="M131.202,22.373l13.273-13.272l-7.464-7.465  c-1.09-1.09-2.518-1.634-3.947-1.634c-1.427,0-2.857,0.544-3.947,1.634l-20.737,20.737c-1.467,1.466-2,3.626-1.383,5.606  c10.979,35.268,28.501,100.924,35.723,179.623h22.822c-7.222-78.7-24.745-144.355-35.724-179.623  C129.203,25.999,129.734,23.839,131.202,22.373z" opacity="0.1"/><path d="M358.707,53.519c4.392,0,7.953-3.56,7.953-7.953v-35.6l-4.263,4.265  c-1.055,1.054-2.459,1.634-3.949,1.634s-2.893-0.581-3.947-1.633l-3.747-3.748v35.08C350.754,49.959,354.314,53.519,358.707,53.519z  " fill="#ef3e3b"/><g><path d="M279.964,207.603h15.909v-37.367c0-4.393-3.561-7.953-7.954-7.953s-7.954,3.56-7.954,7.953v37.367   H279.964z" fill="#f9bd6e"/><path d="M315.386,177.791v29.811h15.908v-29.811c0-4.393-3.561-7.953-7.953-7.953   C318.946,169.839,315.386,173.399,315.386,177.791z" fill="#f9bd6e"/><path d="M201.915,207.603v-29.811c0-4.393-3.561-7.953-7.954-7.953s-7.954,3.56-7.954,7.953v29.811   L201.915,207.603L201.915,207.603z" fill="#f9bd6e"/></g><path d="M233.26,377.279v61.946h45.483v-61.946c0.849-21.862,16.001-46.522,43.802-66.568  c1.311-0.945,2.64-1.858,3.98-2.761H185.477c1.339,0.902,2.67,1.815,3.98,2.761C217.258,330.757,232.407,355.418,233.26,377.279z" fill="#5d89d8"/><rect x="233px" y="398px" width="45px" height="40px" fill="#543b93"/><path d="M206.688,310.711c-1.309-0.945-2.64-1.858-3.979-2.761h-17.232  c1.339,0.902,2.67,1.815,3.98,2.761c27.802,20.045,42.951,44.706,43.804,66.568v61.946h17.232v-61.946  C249.64,355.418,234.49,330.757,206.688,310.711z" opacity="0.1"/><path d="M382.438,306.747c0,6.018-4.923,10.941-10.939,10.941H140.505c-6.018,0-10.941-4.924-10.941-10.941  v-93.783c0-6.018,4.924-10.94,10.941-10.94h230.993c6.017,0,10.939,4.923,10.939,10.94L382.438,306.747L382.438,306.747z" fill="#4351b5"/><rect x="129px" y="238px" width="252px" height="50px" fill="#5d89d8"/><path d="M146.284,306.747v-93.783c0-6.018,4.923-10.94,10.94-10.94h-16.719  c-6.018,0-10.941,4.923-10.941,10.94v93.783c0,6.018,4.924,10.941,10.941,10.941h16.719  C151.206,317.688,146.284,312.764,146.284,306.747z" opacity="0.1"/><g><path d="M158.095,272.138c-2.088,0-4.145-0.85-5.619-2.323c-1.485-1.485-2.333-3.532-2.333-5.621   c0-2.1,0.85-4.147,2.333-5.632c1.474-1.473,3.532-2.323,5.619-2.323c2.1,0,4.147,0.85,5.622,2.323   c1.485,1.485,2.332,3.532,2.332,5.632c0,2.089-0.847,4.136-2.332,5.621C162.241,271.29,160.194,272.138,158.095,272.138z" fill="#e5e5e5"/><path d="M207.217,272.138c-2.09,0-4.147-0.85-5.621-2.323c-1.486-1.485-2.332-3.532-2.332-5.621   c0-2.1,0.847-4.147,2.332-5.632c1.473-1.473,3.531-2.323,5.621-2.323c2.089,0,4.146,0.85,5.62,2.323   c1.484,1.485,2.332,3.532,2.332,5.632c0,2.089-0.85,4.136-2.332,5.621C211.363,271.29,209.306,272.138,207.217,272.138z" fill="#e5e5e5"/><path d="M256.337,272.138c-2.089,0-4.147-0.85-5.621-2.323c-1.485-1.485-2.332-3.532-2.332-5.621   c0-2.1,0.848-4.147,2.332-5.632c1.473-1.473,3.532-2.323,5.621-2.323c2.09,0,4.147,0.85,5.62,2.323   c1.486,1.485,2.333,3.532,2.333,5.632c0,2.089-0.847,4.136-2.333,5.621C260.485,271.29,258.427,272.138,256.337,272.138z" fill="#e5e5e5"/><path d="M305.459,272.138c-2.1,0-4.146-0.85-5.621-2.323c-1.485-1.485-2.333-3.532-2.333-5.621   c0-2.1,0.849-4.147,2.333-5.632c1.474-1.473,3.52-2.323,5.621-2.323c2.089,0,4.146,0.85,5.622,2.323   c1.484,1.485,2.333,3.532,2.333,5.632c0,2.089-0.849,4.136-2.333,5.621C309.605,271.29,307.548,272.138,305.459,272.138z" fill="#e5e5e5"/><path d="M354.581,272.138c-2.1,0-4.147-0.85-5.631-2.323c-1.474-1.485-2.323-3.532-2.323-5.621   c0-2.1,0.847-4.147,2.323-5.632c1.484-1.473,3.531-2.323,5.631-2.323c2.089,0,4.136,0.85,5.621,2.323   c1.485,1.485,2.332,3.532,2.332,5.632c0,2.089-0.848,4.136-2.332,5.621C358.717,271.29,356.67,272.138,354.581,272.138z" fill="#e5e5e5"/></g><path d="M256.001,417.826c-26.006,0-47.087,21.082-47.087,47.087c0,26.004,21.082,47.087,47.087,47.087  c26.006,0,47.087-21.083,47.087-47.087C303.088,438.908,282.007,417.826,256.001,417.826z M256.001,480.742  c-8.743,0-15.828-7.087-15.828-15.828s7.085-15.828,15.828-15.828c8.743,0,15.828,7.087,15.828,15.828  C271.829,473.655,264.744,480.742,256.001,480.742z" fill="#4351b5"/><path d="M225.697,464.913c0-23.14,16.696-42.366,38.696-46.327c-2.724-0.49-5.526-0.761-8.392-0.761   c-26.006,0-47.087,21.082-47.087,47.087c0,26.004,21.082,47.087,47.087,47.087c2.865,0,5.668-0.271,8.392-0.761   C242.392,507.279,225.697,488.052,225.697,464.913z" opacity="0.1"/><g><path d="M317.401,53.519c4.393,0,7.954-3.56,7.954-7.953V10.295l-3.936,3.937   c-1.056,1.054-2.459,1.634-3.949,1.634c-1.491,0-2.894-0.581-3.948-1.633l-4.075-4.075v35.408   C309.448,49.959,313.009,53.519,317.401,53.519z" fill="#ef3e3b"/><path d="M276.095,53.519c4.393,0,7.953-3.56,7.953-7.953V10.622l-3.609,3.609   c-1.055,1.054-2.458,1.634-3.948,1.634c-1.491,0-2.894-0.581-3.948-1.633l-4.402-4.403v35.736   C268.142,49.959,271.703,53.519,276.095,53.519z" fill="#ef3e3b"/><path d="M239.46,14.232c-1.056,1.054-2.46,1.634-3.949,1.634c-1.491,0-2.894-0.581-3.948-1.633l-4.728-4.727   v36.06c0,4.393,3.561,7.953,7.954,7.953s7.954-3.56,7.954-7.953V10.948L239.46,14.232z" fill="#ef3e3b"/><path d="M198.48,14.232c-1.055,1.054-2.458,1.634-3.949,1.634c-1.49,0-2.892-0.581-3.947-1.633l-3.938-3.938   v32.331c0,4.393,3.561,7.953,7.954,7.953c4.392,0,7.953-3.56,7.953-7.953V10.157L198.48,14.232z" fill="#ef3e3b"/><path d="M157.503,14.232c-1.055,1.054-2.46,1.634-3.949,1.634c-1.491,0-2.894-0.581-3.948-1.633   l-4.264-4.265v32.659c0,4.393,3.561,7.953,7.953,7.953c4.394,0,7.954-3.56,7.954-7.953V10.485L157.503,14.232z" fill="#ef3e3b"/></g></g><g transform="matrix(0.1171875 0 0 0.1171875 306 74)" id="L1_5"><rect x="278px" y="117px" width="199px" height="33px" transform="matrix(-0.707099974155426 0.707099974155426 -0.707099974155426 -0.707099974155426 740.2706909179688 -39.082698822021484)" fill="#ff675f"/><path d="M453.04,82.436l53.015-53.014c7.289-7.29,7.97-18.535,1.514-24.993  c-6.456-6.455-17.703-5.774-24.992,1.515L429.563,58.96L453.04,82.436z" fill="#ef3e3b"/><path d="M240.696,315.274l-43.969-43.969c-36.124,32.19-70.798,65.963-103.91,101.227l46.652,46.652  C174.733,386.071,208.506,351.398,240.696,315.274z" fill="#d1d3d4"/><g><path d="M193.502,366.007l-47.508-47.508c-8.869,8.605-17.643,17.308-26.314,26.113l47.708,47.707   C176.192,383.649,184.896,374.876,193.502,366.007z" fill="#e5e5e5"/><path d="M200.404,268.058c-9.262,8.206-18.432,16.511-27.504,24.922l46.121,46.12   c8.41-9.072,16.716-18.24,24.921-27.504L200.404,268.058z" fill="#e5e5e5"/></g><path d="M181.494,301.573c0,0,23.137-21.005,23.85-21.651l-8.617-8.617  c-36.124,32.19-70.798,65.963-103.91,101.227l8.591,8.591C127.171,353.685,153.892,327.162,181.494,301.573z" opacity="0.1"/><path d="M139.468,417.981c0.565,0.565,0.777,1.393,0.554,2.161c-4.563,15.667-16.782,29.721-37.349,42.966  c-17.726,11.415-39.511,20.847-58.731,29.166c-15.381,6.658-29.908,12.947-40.621,19.41c-0.861,0.519-1.966,0.385-2.678-0.328  c-0.713-0.713-0.846-1.817-0.328-2.679c6.463-10.713,12.752-25.238,19.41-40.62c8.321-19.22,17.751-41.005,29.166-58.731  c13.245-20.569,27.299-32.786,42.966-37.349c0.767-0.224,1.596-0.011,2.161,0.555L139.468,417.981z" fill="#ff994d"/><path d="M31.217,468.058c8.322-19.22,17.751-41.005,29.166-58.731  c11.189-17.375,22.958-28.767,35.786-34.644l-2.151-2.15c-0.565-0.566-1.394-0.778-2.161-0.555  c-15.667,4.563-29.721,16.781-42.966,37.349c-11.416,17.726-20.846,39.511-29.166,58.731c-6.658,15.382-12.947,29.907-19.41,40.62  c-0.518,0.862-0.385,1.968,0.328,2.679c0.713,0.713,1.817,0.847,2.678,0.328c3.02-1.821,6.35-3.629,9.909-5.436  C19.197,495.821,25.049,482.309,31.217,468.058z" opacity="0.1"/><g><path d="M101.705,380.219l-39.135,39.134c-2.975,2.975-2.975,7.798,0,10.773   c1.488,1.488,3.437,2.231,5.386,2.231c1.949,0,3.899-0.744,5.386-2.231l39.132-39.132L101.705,380.219z" fill="#ff8828"/><path d="M121.009,399.523l-22.832,22.832c-2.976,2.974-2.976,7.797,0,10.773   c1.488,1.487,3.437,2.231,5.386,2.231s3.899-0.744,5.386-2.231l22.831-22.833L121.009,399.523z" fill="#ff8828"/></g><path d="M240.727,315.239c31.698-35.577,61.86-72.561,90.378-110.868l-23.477-23.478  c-38.306,28.519-75.291,58.681-110.868,90.381L240.727,315.239z" fill="#ef3e3b"/></g><g transform="matrix(0.1171877309679985 0 0 0.1171877309679985 171 20)" id="L1_7"><path d="M209.575,428.271H386.32c4.329,0,7.837,3.508,7.837,7.837c0,4.329-3.508,7.837-7.837,7.837H183.254  c5.929,0,14.196-3.446,18.371-7.656L209.575,428.271z" fill="#ff675f"/><path d="M200.316,175.879c6.631-6.555,6.631-17.185,0-23.742c-6.631-6.557-17.382-6.556-24.014,0  c-6.633,6.558-6.633,17.186,0,23.742C182.934,182.434,193.685,182.434,200.316,175.879z" fill="#ff8380"/><path d="M141.824,443.944c-5.929,0-14.196-3.446-18.372-7.656l-13.865-13.98  c-4.175-4.21-4.175-11.101,0-15.311L442.575,71.212c4.176-4.21,11.01-4.21,15.185,0l51.107,51.534c4.175,4.21,4.175,11.101,0,15.311  L213.119,436.288c-4.175,4.21-12.443,7.656-18.371,7.656H141.824z" fill="#ff675f"/><path d="M137.923,422.308c-4.175-4.21-4.175-11.101,0-15.311L464.337,77.842  l-6.576-6.63c-4.175-4.21-11.009-4.21-15.185,0L109.588,406.997c-4.175,4.21-4.175,11.101,0,15.311l13.865,13.98  c4.176,4.21,12.444,7.656,18.372,7.656h28.336c-5.929,0-14.196-3.446-18.372-7.656L137.923,422.308z" opacity="0.1"/><g><path d="M153.996,420.487c2.068,0,4.086-0.836,5.548-2.299c1.452-1.452,2.288-3.469,2.288-5.538   c0-2.058-0.837-4.086-2.288-5.538c-1.462-1.463-3.48-2.299-5.548-2.299c-2.059,0-4.075,0.836-5.539,2.299   c-1.463,1.452-2.298,3.479-2.298,5.538c0,2.069,0.835,4.086,2.298,5.538C149.92,419.651,151.936,420.487,153.996,420.487z" fill="#e01013"/><path d="M207.567,366.475c2.059,0,4.086-0.846,5.538-2.299c1.463-1.462,2.299-3.478,2.299-5.538   c0-2.068-0.836-4.086-2.299-5.548c-1.452-1.453-3.478-2.288-5.538-2.288c-2.069,0-4.086,0.836-5.538,2.288   c-1.463,1.462-2.299,3.479-2.299,5.548c0,2.06,0.836,4.075,2.299,5.538C203.481,365.63,205.498,366.475,207.567,366.475z" fill="#e01013"/><path d="M234.347,339.466c2.058,0,4.086-0.836,5.538-2.299c1.463-1.463,2.299-3.479,2.299-5.538   c0-2.069-0.836-4.086-2.299-5.549c-1.452-1.452-3.48-2.287-5.538-2.287c-2.058,0-4.074,0.836-5.538,2.287   c-1.463,1.463-2.299,3.48-2.299,5.549c0,2.058,0.836,4.086,2.299,5.538C230.263,338.63,232.29,339.466,234.347,339.466z" fill="#e01013"/><path d="M194.255,423.683c2.069,0,4.086-0.836,5.549-2.287c1.452-1.463,2.287-3.479,2.287-5.549   c0-2.058-0.836-4.086-2.287-5.538c-1.463-1.463-3.48-2.299-5.549-2.299c-2.058,0-4.075,0.836-5.538,2.299   c-1.462,1.463-2.299,3.479-2.299,5.538c0,2.069,0.837,4.086,2.299,5.549C190.18,422.848,192.196,423.683,194.255,423.683z" fill="#e01013"/><path d="M241.641,375.901c2.059,0,4.086-0.836,5.549-2.288c1.453-1.462,2.287-3.479,2.287-5.548   c0-2.059-0.835-4.075-2.287-5.538c-1.463-1.463-3.49-2.299-5.549-2.299c-2.057,0-4.085,0.836-5.537,2.299   c-1.463,1.462-2.3,3.478-2.3,5.538c0,2.068,0.837,4.086,2.3,5.548C237.566,375.065,239.583,375.901,241.641,375.901z" fill="#e01013"/></g><g><path d="M307.222,388.701h107.054c4.328,0,7.837-3.508,7.837-7.837c0-4.329-3.509-7.837-7.837-7.837H307.222   c-4.329,0-7.837,3.508-7.837,7.837C299.385,385.194,302.894,388.701,307.222,388.701z" fill="#ff8380"/><path d="M420.173,443.944H484.8c4.328,0,7.837-3.508,7.837-7.837c0-4.329-3.509-7.837-7.837-7.837h-64.627   c-4.329,0-7.837,3.508-7.837,7.837C412.336,440.435,415.845,443.944,420.173,443.944z" fill="#ff8380"/><path d="M131.577,294.886c2.099,2.095,5.533,2.095,7.632,0l13.409-13.386c2.099-2.095,2.099-5.522,0-7.617   l-13.409-13.386c-2.099-2.096-5.533-2.096-7.632,0l-13.409,13.386c-2.1,2.095-2.1,5.522,0,7.617L131.577,294.886z" fill="#ff8380"/></g><g><path d="M43.006,382.571c2.098,2.096,5.533,2.096,7.631,0l13.41-13.386c2.1-2.095,2.1-5.522,0-7.617   l-13.41-13.385c-2.098-2.095-5.533-2.095-7.631,0l-13.41,13.385c-2.098,2.095-2.098,5.522,0,7.617L43.006,382.571z" fill="#ef3e3b"/><path d="M14.984,282.844c2.098,2.095,5.533,2.095,7.631,0l13.411-13.388   c2.099-2.095,2.098-5.522-0.001-7.617l-13.41-13.383c-2.098-2.095-5.533-2.095-7.631,0L1.575,261.839   c-2.099,2.095-2.099,5.522-0.001,7.617L14.984,282.844z" fill="#ef3e3b"/></g><g><path d="M466.081,142.571c-3.062-3.059-8.023-3.059-11.083,0c-3.06,3.062-3.06,8.023,0,11.083l19.283,19.283   l11.037-11.13L466.081,142.571z" fill="#e01013"/><path d="M435.256,173.396c-3.062-3.059-8.023-3.059-11.083,0c-3.06,3.062-3.06,8.023,0,11.083l19.411,19.411   l11.037-11.13L435.256,173.396z" fill="#e01013"/><path d="M404.432,204.22c-3.062-3.059-8.023-3.059-11.083,0c-3.06,3.062-3.06,8.023,0,11.083l19.54,19.54   l11.037-11.129L404.432,204.22z" fill="#e01013"/><path d="M373.607,235.045c-3.062-3.059-8.023-3.059-11.083,0c-3.06,3.062-3.06,8.023,0,11.083l19.668,19.668   l11.038-11.129L373.607,235.045z" fill="#e01013"/></g></g><g transform="matrix(0.1171875 0 0 0.1171875 210 138)" id="L1_9"><path d="M55.976,422.31L1.239,477.063c-2.096,2.095-1.468,4.44,1.395,5.208l62.846,16.868  c2.863,0.768,6.92-0.319,9.016-2.415l27.934-27.945L55.976,422.31z" fill="#ff8828"/><path d="M70.117,436.456L55.976,422.31L1.239,477.063  c-2.096,2.095-1.468,4.44,1.395,5.208l17.095,4.588L70.117,436.456z" opacity="0.1"/><path d="M77.937,444.278l-20.753,20.759c-3.059,3.062-3.059,8.023,0.002,11.083  c1.531,1.53,3.535,2.295,5.541,2.295c2.006,0,4.012-0.765,5.543-2.296l20.75-20.755L77.937,444.278z" fill="#ef3e3b"/><path d="M90.549,376.106c2.096-2.097,5.526-2.097,7.621,0l50.448,50.465c2.096,2.096,2.096,5.526,0,7.624  l-40.621,40.635c-2.096,2.095-5.525,2.095-7.621,0l-50.448-50.464c-2.096-2.097-2.096-5.528,0-7.624L90.549,376.106z" fill="#212f99"/><path d="M66.858,441.156c-2.096-2.097-2.096-5.528,0-7.624l40.622-40.636  c1.851-1.853,4.741-2.063,6.835-0.642l-16.144-16.149c-2.095-2.097-5.525-2.097-7.621,0l-40.621,40.636  c-2.096,2.096-2.096,5.526,0,7.624L66.858,441.156z" opacity="0.1"/><path d="M137.914,444.868c2.031,2.032,5.936,2.986,8.676,2.12l82.665-26.139  c2.74-0.866,3.32-3.238,1.287-5.269L109.16,294.159c-2.031-2.032-4.402-1.453-5.268,1.287l-26.131,82.694  c-0.865,2.74,0.088,6.645,2.12,8.677L137.914,444.868z" fill="#4351b5"/><path d="M96.812,403.608c-2.031-2.032-2.986-5.937-2.119-8.677l26.131-82.694  c0.754-2.387,2.649-3.132,4.467-1.942l-16.13-16.135c-2.031-2.032-4.402-1.453-5.268,1.287l-26.131,82.694  c-0.865,2.74,0.088,6.645,2.12,8.677L96.812,403.608z" opacity="0.1"/><path d="M368.81,17.332c6.288-6.289,16.575-6.289,22.863,0l115.611,115.646c6.288,6.288,6.288,16.58,0,22.87  L242.479,420.736c-6.287,6.288-16.575,6.288-22.862,0L104.004,305.089c-6.288-6.289-6.288-16.581,0-22.87L368.81,17.332z" fill="#ff994d"/><path d="M348.975,37.175 487.449,175.69 262.316,400.893 123.841,262.376z" fill="#ff8828"/><path d="M340.272,145.075c2.096-2.096,5.525-2.096,7.621,0l31.689,31.699c2.095,2.096,2.095,5.526,0,7.624  L276.421,287.587c-2.096,2.096-5.525,2.096-7.621,0l-31.688-31.698c-2.096-2.096-2.096-5.527,0-7.623L340.272,145.075z" fill="#ffffff"/><path d="M340.272,145.075c2.096-2.096,5.525-2.096,7.621,0l31.689,31.699c2.095,2.096,2.095,5.526,0,7.624  L276.421,287.587c-2.096,2.096-5.525,2.096-7.621,0l-31.688-31.698c-2.096-2.096-2.096-5.527,0-7.623L340.272,145.075z" fill="#4351b5"/><path d="M248.863,267.638c-2.096-2.096-2.096-5.527,0-7.623l103.16-103.191  c2.089-2.089,5.5-2.094,7.599-0.019l-11.728-11.732c-2.096-2.096-5.525-2.096-7.621,0l-103.16,103.191  c-2.096,2.096-2.096,5.526,0,7.623L248.863,267.638z" opacity="0.1"/><path d="M125.385,326.471c-6.286-6.289-6.286-16.581,0-22.87L390.193,38.715  c6.265-6.267,16.501-6.285,22.793-0.063l-21.313-21.32c-6.288-6.289-16.575-6.289-22.863,0L104.004,282.219  c-6.288,6.288-6.288,16.58,0,22.87L125.385,326.471z" opacity="0.1"/></g><g transform="matrix(0.1171875 0 0 0.1171875 111 62.000003814697266)" id="L1_10"><path d="M420.214,15.777L12.653,15.778C5.695,15.778,0.001,21.473,0,28.436v407.585  c0,6.963,4.026,8.63,8.947,3.708L423.731,24.727C428.653,19.804,427.171,15.778,420.214,15.777z M245.831,95.316L79.497,261.736  c-1.973,1.974-3.589,1.305-3.589-1.488V96.804c0-2.793,2.286-5.079,5.075-5.077l163.361-0.001  C247.136,91.725,247.805,93.341,245.831,95.316z" fill="#38ccaa"/><g><path d="M50.606,41.97c4.14,0,7.495-3.356,7.495-7.494V15.778h-14.99l0.001,18.696   C43.112,38.615,46.469,41.969,50.606,41.97z" fill="#22e0c3"/><path d="M121.551,34.476c0,4.138,3.355,7.494,7.494,7.494c4.14,0,7.495-3.354,7.495-7.494V15.778h-14.988   L121.551,34.476z" fill="#22e0c3"/><path d="M160.77,34.476c0,4.138,3.355,7.494,7.494,7.494s7.495-3.355,7.495-7.493V15.778l-14.989-0.001   V34.476z" fill="#22e0c3"/><path d="M199.989,34.475c0,4.139,3.355,7.494,7.494,7.495c4.139,0,7.495-3.355,7.494-7.494V15.777h-14.988   V34.475z" fill="#22e0c3"/><path d="M254.198,34.475V15.777l-14.988,0.001l0.001,18.697c-0.001,4.139,3.354,7.494,7.493,7.494   C250.842,41.969,254.198,38.615,254.198,34.475z" fill="#22e0c3"/><path d="M325.141,41.971c4.141-0.001,7.495-3.355,7.495-7.495l0.001-18.698h-14.989v18.699   C317.648,38.615,321.002,41.971,325.141,41.971z" fill="#22e0c3"/><path d="M364.362,41.97c4.139,0,7.494-3.355,7.494-7.494l0.001-18.698h-14.99l0.001,18.698   C356.868,38.614,360.224,41.97,364.362,41.97z" fill="#22e0c3"/><path d="M0.001,73.904h18.292c4.139,0,7.495-3.355,7.494-7.494c0-4.138-3.355-7.494-7.494-7.495L0,58.915   L0.001,73.904z" fill="#22e0c3"/><path d="M0.001,113.144l18.292-0.001c4.139,0.001,7.494-3.355,7.494-7.493   c0.001-4.14-3.355-7.495-7.495-7.494H0.001C0.001,98.156,0.001,113.144,0.001,113.144z" fill="#22e0c3"/><path d="M0,152.383l18.294-0.001c4.14,0.001,7.495-3.356,7.494-7.494c0-4.139-3.356-7.494-7.495-7.494H0.001   L0,152.383z" fill="#22e0c3"/><path d="M0.001,191.623l18.293-0.001c4.14,0,7.494-3.354,7.494-7.493c0-4.139-3.355-7.495-7.495-7.494   l-18.292-0.001C0.001,176.634,0.001,191.623,0.001,191.623z" fill="#22e0c3"/><path d="M0.001,230.862l18.292,0.001h0.001c4.138,0.001,7.494-3.354,7.494-7.493s-3.354-7.494-7.493-7.496   H0.001V230.862z" fill="#22e0c3"/><path d="M0.001,270.102l18.292,0.001c4.139-0.001,7.495-3.356,7.495-7.495c0-4.139-3.356-7.495-7.496-7.495   H0.001V270.102z" fill="#22e0c3"/><path d="M0.001,309.34h18.292c4.139,0,7.495-3.354,7.495-7.493c-0.001-4.139-3.356-7.494-7.496-7.495H0   L0.001,309.34z" fill="#22e0c3"/><path d="M0.001,348.584l18.294-0.002c4.139,0,7.493-3.355,7.493-7.494c0-4.139-3.355-7.493-7.495-7.494   l-18.292,0.001V348.584z" fill="#22e0c3"/><path d="M0,387.823l18.294-0.001c4.139,0,7.494-3.354,7.494-7.493c0-4.14-3.355-7.495-7.494-7.495H0.001   L0,387.823z" fill="#22e0c3"/><path d="M278.429,34.477c0,4.139,3.357,7.493,7.496,7.493c4.138,0,7.494-3.355,7.494-7.494V15.777   l-14.99,0.001V34.477z" fill="#22e0c3"/><path d="M82.331,34.476c0,4.138,3.356,7.494,7.496,7.494l0,0c4.139,0,7.494-3.355,7.494-7.493l0.001-18.698   H82.333L82.331,34.476z" fill="#22e0c3"/></g><path d="M448.796,87.893c-3.261-3.262-8.596-3.26-11.859,0l-34.006,34l72.613,72.613l34.008-34.006  c3.261-3.261,3.263-8.596,0.002-11.856L448.796,87.893z" fill="#ef3e3b"/><path d="M448.796,87.893c-3.261-3.262-8.596-3.26-11.859,0l-34.006,34  l13.826,13.825l34.151-34.146c2.82-2.82,7.189-3.194,10.428-1.14L448.796,87.893z" opacity="0.1"/><path d="M458.206,211.841 196.477,473.522 123.857,400.917 385.586,139.234z" fill="#4bc8dd"/><path d="M458.206,211.841 196.477,473.522 172.271,449.321 433.997,187.64z" fill="#8ae4ed"/><path d="M409.791,163.436 148.065,425.12 123.857,400.917 385.586,139.234z" fill="#079ece"/><path d="M206.554,436.22c-4.569-4.569-11.091-6.533-17.441-5.25c1.284-6.35-0.68-12.869-5.25-17.439  c-4.57-4.568-11.091-6.533-17.442-5.251c1.284-6.351-0.679-12.869-5.251-17.44c-7.385-7.381-19.501-7.475-26.992-0.216l-0.613,0.589  l-14.638,14.634c-0.598,0.599-1.007,1.36-1.17,2.19l-10.038,50.484l31.143,31.139l50.495-10.037c0.829-0.165,1.59-0.573,2.188-1.171  l14.515-14.512c0.019-0.016,0.705-0.723,0.705-0.723C214.031,455.714,213.939,443.602,206.554,436.22z" fill="#ffd592"/><path d="M108.418,454.997l-7.183,36.113c-0.278,1.401,0.162,2.849,1.172,3.859  c1.011,1.011,2.459,1.449,3.859,1.172l36.122-7.181L108.418,454.997z" fill="#211756"/><path d="M131.927,417.298c0.165-0.83,0.574-1.592,1.17-2.192l264.205-264.159  l-11.716-11.713L118.926,405.847c-0.598,0.599-1.007,1.36-1.17,2.19l-16.521,83.073c-0.278,1.401,0.162,2.849,1.172,3.859  c1.011,1.011,2.459,1.449,3.859,1.172l10.39-2.066L131.927,417.298z" opacity="0.1"/><path d="M396.43,119.717l-14.062,14.063c-1.983,1.983-1.983,5.228,0,7.211c-1.983-1.983-5.23-1.982-7.212,0  l-14.064,14.064c-1.983,1.983-1.983,5.229,0.001,7.211l74.072,74.074c1.984,1.982,5.23,1.982,7.212,0l14.064-14.063  c1.983-1.983,1.983-5.229,0-7.212c1.983,1.983,5.229,1.983,7.211,0l14.064-14.064c1.982-1.983,1.982-5.229,0-7.212l-74.073-74.074  C401.659,117.733,398.413,117.733,396.43,119.717z" fill="#e5e5e5"/><path d="M456.44,215.065c1.983,1.983,1.983,5.229,0,7.212l-14.064,14.063c-1.982,1.982-5.228,1.982-7.212,0  l-74.072-74.074c-1.984-1.982-1.984-5.228-0.001-7.211l14.064-14.064c1.982-1.982,5.229-1.983,7.212,0L456.44,215.065z" fill="#d1d3d4"/><path d="M375.155,140.993l-14.064,14.064c-1.983,1.983-1.983,5.229,0.001,7.211  l15.809,15.81c-1.983-1.983-1.983-5.228,0-7.212l14.063-14.064c1.983-1.983,5.23-1.984,7.211,0l-15.808-15.809  C380.384,139.009,377.138,139.009,375.155,140.993z" opacity="0.1"/><path d="M396.43,119.717l-14.062,14.063c-1.983,1.983-1.983,5.228,0,7.211  l15.808,15.809c-1.982-1.984-1.982-5.229,0-7.212l14.064-14.063c1.983-1.983,5.229-1.983,7.211,0l-15.808-15.81  C401.659,117.733,398.413,117.733,396.43,119.717z" opacity="0.1"/></g><g transform="matrix(0.1171875 0 0 0.1171875 -30 -10)" id="L1_11"><path d="M372.647,469.22h-146.71l73.383-73.294L129.764,226.158L3.135,352.635  c-4.18,4.174-4.18,11.004,0,15.178l109.621,109.491c4.179,4.174,12.43,7.589,18.336,7.589h241.555c4.329,0,7.837-3.509,7.837-7.837  S376.975,469.22,372.647,469.22z" fill="#22e0c3"/><path d="M425.71,125.211L216.615,334.05l71.537,71.455c2.09,2.087,5.508,2.087,7.597,0l201.499-201.248  c2.091-2.088,2.091-5.502,0-7.589L425.71,125.211z" fill="#4351b5"/><path d="M23.585,388.241L157.78,254.209l-28.017-28.051L3.135,352.635  c-4.18,4.174-4.18,11.004,0,15.178L23.585,388.241z" opacity="0.1"/><g><path d="M334.877,453.563c-2.092,2.085-5.514,2.085-7.607,0l-12.681-12.635c-2.093-2.085-2.092-5.495,0-7.58   l12.68-12.633c2.093-2.085,5.516-2.085,7.608,0l12.68,12.633c2.092,2.085,2.093,5.495,0.001,7.58L334.877,453.563z" fill="#22e0c3"/><path d="M476.267,443.732c-2.092,2.085-5.515,2.085-7.607,0l-12.68-12.635c-2.092-2.085-2.092-5.495,0-7.58   l12.68-12.632c2.092-2.085,5.516-2.085,7.608,0l12.68,12.633c2.093,2.085,2.094,5.495,0.001,7.58L476.267,443.732z" fill="#22e0c3"/></g><g><path d="M395.699,394.396c-2.092,2.085-5.515,2.085-7.607,0l-12.682-12.635   c-2.092-2.085-2.092-5.495,0.001-7.58l12.681-12.633c2.092-2.085,5.515-2.085,7.608,0l12.679,12.633   c2.093,2.085,2.093,5.495,0.001,7.58L395.699,394.396z" fill="#4bc8dd"/><path d="M504.163,484.893H406.62c-4.329,0-7.837-3.509-7.837-7.837c0-4.328,3.508-7.837,7.837-7.837h97.543   c4.329,0,7.837,3.509,7.837,7.837C512,481.384,508.492,484.893,504.163,484.893z" fill="#4bc8dd"/></g><g><path d="M246.863,448.319l-22.797-22.8c-3.062-3.061-8.024-3.059-11.083,0   c-3.062,3.06-3.062,8.023-0.001,11.083l22.79,22.793L246.863,448.319z" fill="#38ccaa"/><path d="M248.764,400.817c-3.061-3.059-8.023-3.06-11.082-0.001c-3.062,3.06-3.062,8.023-0.001,11.083   l22.808,22.81l11.09-11.077L248.764,400.817z" fill="#38ccaa"/></g><path d="M369.635,69.2 160.54,278.039 201.301,318.754 410.398,109.917z" fill="#fff297"/><path d="M373.4,72.96l-44.34-44.288c-2.09-2.087-5.508-2.087-7.597,0L119.964,229.921  c-2.089,2.088-2.09,5.502,0,7.589l44.34,44.289L373.4,72.96z" fill="#4351b5"/><path d="M140.512,258.034L349.607,49.196l-20.548-20.524  c-2.09-2.087-5.508-2.087-7.597,0L119.964,229.921c-2.089,2.088-2.09,5.502,0,7.589L140.512,258.034z" opacity="0.1"/><path d="M404.114,103.641 195.021,312.474 224.225,341.65 433.318,132.814z" fill="#ffd655"/></g><g transform="matrix(0.1171872690320015 0 0 0.1171872690320015 282 37)" id="L1_12"><path d="M80.683,431.316c107.346,107.346,280.27,107.615,387.934,0.587c0.785-0.78,1.564-1.564,2.336-2.351  c57.912-58.948,54.037-154.141-8.406-208.266c-37.55-32.548-72.909-46.297-99.222-72.611s-40.063-61.674-72.611-99.222  C236.59-12.989,141.397-16.863,82.449,41.047c-0.787,0.772-1.571,1.552-2.351,2.336C-26.93,151.048-26.663,323.971,80.683,431.316  L80.683,431.316z" fill="#e9e9e9"/><path d="M80.683,431.316c107.346,107.346,280.27,107.615,387.934,0.587c0.785-0.78,1.564-1.564,2.336-2.351  c57.912-58.948,54.037-154.141-8.406-208.266c-37.55-32.548-72.909-46.297-99.222-72.611  C363.325,148.675,80.683,431.316,80.683,431.316L80.683,431.316z" fill="#d4d4d4"/><circle cx="155" cy="356" r="39" fill="#d1393c"/><path d="M183.421,328.58c15.293,15.293,15.293,40.087,0,55.381c-15.293,15.293-40.087,15.293-55.381,0  L183.421,328.58z" fill="#bc2029"/><circle cx="285" cy="401" r="39" fill="#80cdd8"/><circle cx="401" cy="328" r="39" fill="#3a7484"/><circle cx="183" cy="110" r="39" fill="#e68d2c"/><circle cx="110" cy="226" r="39" fill="#e06b34"/></g><g transform="matrix(0.1171875 0 0 0.1171875 46 44)" id="L1_14"><path d="M299.452,273.769h-86.904l-13.579,176.376C196.26,483.465,222.571,512,256,512l0,0  c33.429,0,59.739-28.535,57.032-61.855L299.452,273.769z" fill="#80cdd8"/><path d="M299.452,273.769H256c0,0,0,201.002,0,238.231l0,0c33.429,0,59.739-28.535,57.032-61.855  L299.452,273.769z" fill="#5293a9"/><path d="M398.884,0 113.116,0 124.782,202.495 387.218,202.495z" fill="#e68d2c"/><path d="M398.884,0 256,0 256,202.495 387.218,202.495z" fill="#e06b34"/><rect x="169px" y="0px" width="33px" height="95px" fill="#e9e9e9"/><rect x="309px" y="0px" width="33px" height="95px" fill="#d4d4d4"/><rect x="239px" y="0px" width="33px" height="73px" fill="#e9e9e9"/><rect x="256px" y="0px" width="16px" height="73px" fill="#d4d4d4"/><path d="M363.294,283.059H148.706c-23.548,0-42.636-19.089-42.636-42.636v-49.997H405.93v49.997  C405.93,263.97,386.842,283.059,363.294,283.059z" fill="#a8eaef"/><path d="M363.294,283.059H256v-92.633h149.93v49.997C405.93,263.97,386.842,283.059,363.294,283.059z" fill="#80cdd8"/></g><g transform="matrix(0.1171872690320015 0 0 0.1171872690320015 135 81)" id="L1_15"><path d="M182.856,400.148l-56.7-56.7c-20.846-3.297-42.926,3.083-58.99,19.148  C28.38,401.382,48.681,431.232,0,497.683c0,0,128.238-3.075,163.709-38.545C179.773,443.073,186.153,420.994,182.856,400.148z" fill="#eeba7d"/><path d="M183.145,402.317c24.195-6.99,81.881-52.543,81.881-52.543  c93.555-93.555,274.592-300.704,243.408-331.89s-238.348,149.84-331.902,243.395c0,0-45.54,57.699-52.53,81.894L183.145,402.317z" fill="#80cdd8"/><path d="M182.856,400.148l-28.349-28.349L30.382,495.924c40.204-3.259,108.85-12.308,133.327-36.785  C179.773,443.073,186.153,420.994,182.856,400.148z" fill="#e68d2c"/><path d="M265.027,349.773c93.555-93.555,274.592-300.704,243.408-331.89  c-0.002-0.002-0.004-0.004-0.007-0.006L153.568,372.739l29.578,29.578C207.34,395.327,265.027,349.773,265.027,349.773z" fill="#5293a9"/><path d="M176.532,261.279c0,0-4.192,5.313-10.224,13.382L251.647,360c8.068-6.034,13.38-10.227,13.38-10.227  c3.777-3.777,7.697-7.74,11.738-11.867l-88.366-88.366C184.272,253.582,180.309,257.502,176.532,261.279z" fill="#e68d2c"/><path d="M265.027,349.773c3.777-3.777,7.697-7.74,11.738-11.867l-44.182-44.182l-23.607,23.605L251.647,360  C259.715,353.966,265.027,349.773,265.027,349.773z" fill="#e06b34"/></g><g transform="matrix(0.1171875 0 0 0.1171875 105 142)" id="L1_16"><path d="M497.559,163.289L368.481,34.211c-19.253-19.253-50.47-19.253-69.723,0L14.44,318.529  c-19.253,19.253-19.253,50.47,0,69.723l103.975,103.975h119.928l259.216-259.216C516.813,213.759,516.813,182.542,497.559,163.289z" fill="#a8eaef"/><path d="M497.56,163.289L433.021,98.75L78.979,452.792l39.436,39.436h119.928l259.216-259.216  C516.813,213.759,516.813,182.542,497.56,163.289z" fill="#80cdd8"/><path d="M14.44,318.529c-19.253,19.253-19.253,50.47,0,69.723l103.975,103.975h119.928L355.4,375.171  L156.599,176.37L14.44,318.529z" fill="#e06b34"/><path d="M78.979,452.792 118.415,492.229 238.343,492.229 355.4,375.171 255.999,275.771z" fill="#d1393c"/></g><g transform="matrix(0.1171875 0 0 0.1171875 231 0)" id="L1_17"><path d="M237.828,280.881 204.437,280.881 204.437,205.913 455.612,205.913 455.612,99.198   397.747,99.198 397.747,65.806 489.003,65.806 489.003,239.304 237.828,239.304z" fill="#818181"/><path d="M419.268,165.004H22.997V0h396.27v165.004H419.268z" fill="#e9e9e9"/><path d="M419.268,165.004H221.133V0h198.135L419.268,165.004L419.268,165.004z" fill="#d4d4d4"/><path d="M275.849,512H166.417V351.914l23.75-87.73h61.934l23.749,87.73V512H275.849z" fill="#e06b34"/><path d="M275.849,512h-54.716V264.185H252.1l23.749,87.73L275.849,512L275.849,512z" fill="#d1393c"/></g><g transform="matrix(0.1171875 0 0 0.1171875 214 76)" id="L1_18"><path d="M414.946,0c-39.515,0-73.089,25.416-85.278,60.791c-42.132,96.067-61.654,84.112-110.905,152.645  c-13.229,18.408-82.163,116.919-129.977,185.312C62.944,435.712,72.332,486.668,109.649,512l0,0c0,0,156.15-222.434,175.43-248.06  c34.69-46.108,27.317-57.167,65.026-111.093c16.397,16.964,39.386,27.514,64.844,27.514c49.805,0,90.181-40.376,90.181-90.181  C505.129,40.376,464.753,0,414.946,0z M440.961,105.2c-11.286,19.549-32.083,28.673-46.451,20.378  c-14.367-8.294-16.865-30.867-5.577-50.416c11.286-19.549,32.083-28.672,46.451-20.378C449.75,63.08,452.248,85.651,440.961,105.2z" fill="#e68d2c"/><path d="M423.213,398.748c-47.814-68.393-116.748-166.904-129.977-185.312  c-49.251-68.533-68.774-56.577-110.905-152.645C170.141,25.416,136.567,0,97.052,0C47.246,0,6.87,40.376,6.87,90.181  s40.376,90.181,90.181,90.181c25.456,0,48.446-10.552,64.844-27.514c37.708,53.925,30.335,64.984,65.026,111.093  C246.201,289.566,402.35,512,402.35,512l0,0C439.667,486.668,449.055,435.712,423.213,398.748z M117.488,125.578  c-14.367,8.294-35.163-0.828-46.451-20.378c-11.286-19.549-8.79-42.121,5.577-50.416c14.367-8.294,35.163,0.828,46.451,20.378  S131.855,117.284,117.488,125.578z" fill="#eeba7d"/><circle cx="255" cy="236" r="16" fill="#d4d4d4"/><path d="M272.695,236.808c0,9.22-7.475,16.696-16.696,16.696v-33.391  C265.22,220.112,272.695,227.587,272.695,236.808z" fill="#aaaaaa"/><path d="M414.946,0c-49.805,0-90.181,40.376-90.181,90.181s40.376,90.181,90.181,90.181  s90.181-40.376,90.181-90.181S464.753,0,414.946,0z M440.961,105.2c-11.286,19.549-32.083,28.673-46.451,20.378  c-14.367-8.294-16.865-30.867-5.577-50.416c11.286-19.549,32.083-28.672,46.451-20.378C449.75,63.08,452.248,85.651,440.961,105.2z" fill="#e06b34"/><path d="M6.87,90.181c0,49.805,40.376,90.181,90.181,90.181s90.181-40.376,90.181-90.181S146.858,0,97.052,0  C47.246,0,6.87,40.376,6.87,90.181z M76.616,54.784c14.367-8.294,35.163,0.828,46.451,20.378  c11.286,19.549,8.79,42.121-5.577,50.416c-14.367,8.294-35.163-0.828-46.451-20.378S62.249,63.08,76.616,54.784z" fill="#e68d2c"/></g><g transform="matrix(0.11718734353780746 0 0 0.11718734353780746 298 138)" id="L1_19"><path d="m443.613281 428.671875c-48.589843 52.492187-117.078125 83.183594-187.863281 83.183594h-8.699219c-13.496093-.601563-25.792969-7.199219-33.894531-17.996094-8.097656-11.097656-10.796875-25.59375-7.496094-38.492187 9.296875-34.492188 0-78.285157-12.597656-104.378907l-17.695312-15.296875-22.199219-19.496094c-38.089844-30.292968-74.351563-44.992187-107.046875-45.289062-13.792969 0-26.394532-6-35.390625-16.199219-8.097657-9.597656-11.695313-21.59375-10.199219-34.191406 19.195312-137.675781 149.339844-236.15625 288.210938-218.457031 56.386718 7.496094 107.679687 34.890625 146.371093 73.882812 39.589844 39.59375 68.585938 91.78125 75.183594 149.371094 8.699219 74.683594-16.296875 148.769531-66.683594 203.359375zm0 0" fill="#fed2a4"/><path d="m443.613281 428.671875c-48.589843 52.492187-117.078125 83.183594-187.863281 83.183594h-8.699219c-13.496093-.601563-25.792969-7.199219-33.894531-17.996094-8.097656-11.097656-10.796875-25.59375-7.496094-38.492187 9.296875-34.492188 0-78.285157-12.597656-104.378907l-17.695312-15.296875 191.660156-191.660156 68.085937-68.089844c39.59375 39.59375 68.585938 91.78125 75.183594 149.371094 8.699219 74.683594-16.296875 148.769531-66.683594 203.359375zm0 0" fill="#ffbd86"/><path d="m391.921875 119.132812c-8.101563-8.097656-19.195313-13.195312-31.792969-13.195312-24.898437 0-44.992187 20.09375-44.992187 44.992188 0 12.59375 5.097656 23.691406 13.195312 31.792968 8.101563 8.097656 19.199219 13.195313 31.796875 13.195313 24.894532 0 44.988282-20.097657 44.988282-44.988281.003906-12.601563-5.097657-23.699219-13.195313-31.796876zm0 0" fill="#ff9f00"/><path d="m405.121094 150.929688c0 24.890624-20.097656 44.988281-44.992188 44.988281-12.597656 0-23.695312-5.097657-31.792968-13.195313l38.691406-38.695312 24.894531-24.894532c8.097656 8.097657 13.199219 19.195313 13.199219 31.796876zm0 0" fill="#ff7816"/><path d="m276.445312 277.5c-10.5 18-27.894531 41.394531-49.792968 66.589844l-59.984375 1.199218v-.898437l-1.199219-58.789063c25.792969-22.496093 49.789062-40.492187 68.085938-50.992187l21.59375 21.597656zm0 0" fill="#ede9e8"/><path d="m255.148438 256.207031 21.296874 21.292969c-10.5 18-27.894531 41.394531-49.789062 66.589844l-59.988281 1.199218v-.898437zm0 0" fill="#d2c5c2"/><path d="m315.136719 450.867188c-24.808594 0-44.992188-20.179688-44.992188-44.988282 0-24.8125 20.183594-44.992187 44.992188-44.992187 24.808593 0 44.992187 20.179687 44.992187 44.992187 0 24.808594-20.183594 44.988282-44.992187 44.988282zm0 0" fill="#80d398"/><path d="m405.121094 330.890625c-24.8125 0-44.992188-20.179687-44.992188-44.988281s20.179688-44.992188 44.992188-44.992188c24.808594 0 44.988281 20.183594 44.988281 44.992188s-20.179687 44.988281-44.988281 44.988281zm0 0" fill="#ff4b00"/><path d="m255.148438 150.929688c-24.808594 0-44.988282-20.183594-44.988282-44.992188s20.179688-44.992188 44.988282-44.992188c24.808593 0 44.992187 20.183594 44.992187 44.992188s-20.183594 44.992188-44.992187 44.992188zm0 0" fill="#b35f49"/><path d="m135.171875 210.914062c-24.808594 0-44.988281-20.179687-44.988281-44.988281 0-24.808593 20.179687-44.992187 44.988281-44.992187s44.992187 20.183594 44.992187 44.992187c0 24.808594-20.183593 44.988281-44.992187 44.988281zm0 0" fill="#804231"/><path d="m239.550781 186.621094c-23.394531 23.394531-23.394531 61.1875 0 84.882812 23.695313 23.394532 61.488281 23.394532 84.886719 0 15.296875-15.296875 14.097656-20.097656 42.589844-127.476562-115.476563 30.59375-113.980469 29.097656-127.476563 42.59375zm0 0" fill="#b35f49"/><path d="m226.652344 344.089844c-6.296875 7.5-12.894532 14.996094-19.792969 22.496094-36.292969 39.589843-85.785156 87.679687-128.976563 118.273437-20.992187 15.296875-54.289062 38.09375-71.382812 20.695313-12.898438-12.59375-6.902344-34.292969 20.695312-72.382813 30.292969-42.894531 76.785157-91.484375 116.078126-127.777344 7.496093-6.894531 14.996093-13.496093 22.195312-19.792969l30.59375 29.394532zm0 0" fill="#ff7816"/><path d="m196.0625 314.996094 30.589844 29.09375c-6.296875 7.5-12.894532 14.996094-19.792969 22.496094-36.292969 39.589843-85.785156 87.679687-128.976563 118.273437-20.992187 15.296875-54.289062 38.09375-71.382812 20.695313zm0 0" fill="#dd3400"/><path d="m367.027344 144.027344c-28.496094 107.378906-27.292969 112.179687-42.59375 127.476562-23.394532 23.394532-61.1875 23.394532-84.882813 0zm0 0" fill="#804231"/></g><g transform="matrix(0.1171875 0 0 0.1171875 41 141)" id="L1_20"><path d="m467 210v302h-60v-302l30-28.199219 1.800781-1.800781zm0 0" fill="#fed2a4"/><path d="m438.800781 180 28.199219 30v302h-30v-330.199219zm0 0" fill="#f6a96c"/><path d="m467 120v90h-60v-90l30-30zm0 0" fill="#804231"/><path d="m467 120v90h-30v-120zm0 0" fill="#582b1f"/><path d="m512 0-45 120h-60l-45-120h60l15 15 15-15zm0 0" fill="#fdbf00"/><path d="m512 0-45 120h-30v-105l15-15zm0 0" fill="#ff9f00"/><path d="m329.300781 240-42.300781 30-42.300781-30c2.402343-33 6.601562-61.5 12-81.601562l30.300781-30 30.300781 30c5.398438 20.101562 9.601563 48.601562 12 81.601562zm0 0" fill="#ede9e8"/><path d="m329.300781 240-42.300781 30v-141.601562l30.300781 30c5.398438 20.101562 9.601563 48.601562 12 81.601562zm0 0" fill="#d2c5c2"/><path d="m182 120-76 30-76-30 31-75h90zm0 0" fill="#ede9e8"/><path d="m182 120-76 30v-105h45zm0 0" fill="#dfd7d5"/><path d="m212 451v61h-212v-61l106-27.898438 8.402344-2.101562zm0 0" fill="#ede9e8"/><path d="m212 451v61h-106v-88.898438l8.402344-2.101562zm0 0" fill="#dfd7d5"/><path d="m212 451h-212l30-331h152zm0 0" fill="#fdbf00"/><path d="m212 451h-106v-331h76zm0 0" fill="#ff9f00"/><path d="m30 0h152v60h-152zm0 0" fill="#663325"/><path d="m106 210c-25.5 0-45 32.101562-45 75s19.5 75 45 75 45-32.101562 45-75-19.5-75-45-75zm0 0" fill="#804231"/><path d="m106 0h76v60h-76zm0 0" fill="#582b1f"/><path d="m106 360v-150c25.5 0 45 32.101562 45 75s-19.5 75-45 75zm0 0" fill="#582b1f"/><path d="m321.199219 58.800781c-5.699219-9.601562-12.601563-21.300781-21.300781-36.300781l-12.898438-22.5-32.699219 56.398438c-24.601562 42.300781-27.300781 46.800781-27.300781 63.601562 0 33 27 60 60 60s60-27 60-60c0-17.402344-4.5-24.902344-25.800781-61.199219zm0 0" fill="#b35f49"/><path d="m332 315c0 72.898438-5.699219 197-45 197s-45-124.101562-45-197c0-26.398438.902344-51.601562 2.699219-75h84.601562c1.796875 23.398438 2.699219 48.601562 2.699219 75zm0 0" fill="#ff7816"/><path d="m329.300781 240c1.796875 23.398438 2.699219 48.601562 2.699219 75 0 72.898438-5.699219 197-45 197v-272zm0 0" fill="#dd3400"/><path d="m287 180v-180l12.898438 22.5c8.699218 15 15.601562 26.699219 21.300781 36.300781 21.300781 36.296875 25.800781 43.796875 25.800781 61.199219 0 33-27 60-60 60zm0 0" fill="#804231"/><path d="m422 0h30v30h-30zm0 0" fill="#ff9f00"/><path d="m437 0h15v30h-15zm0 0" fill="#ff7816"/></g></defs><g fi:class="KUsePattern" opacity="0.48"><pattern id="pattern_L1_0" width="350" height="350" patternUnits="userSpaceOnUse"><use xlink:href="#L1_0" x="-350" y="-350"/><use xlink:href="#L1_0" x="0" y="-350"/><use xlink:href="#L1_0" x="350" y="-350"/><use xlink:href="#L1_0" x="-350" y="0"/><use xlink:href="#L1_0" x="0" y="0"/><use xlink:href="#L1_0" x="350" y="0"/><use xlink:href="#L1_0" x="-350" y="350"/><use xlink:href="#L1_0" x="0" y="350"/><use xlink:href="#L1_0" x="350" y="350"/></pattern><rect x="0" y="0" width="100%" height="100%" fill="url(#pattern_L1_0)"/></g><g fi:class="KUsePattern" opacity="0.19"><pattern id="pattern_L1_1" width="350" height="350" patternUnits="userSpaceOnUse"><use xlink:href="#L1_1" x="-350" y="-350"/><use xlink:href="#L1_1" x="0" y="-350"/><use xlink:href="#L1_1" x="350" y="-350"/><use xlink:href="#L1_1" x="-350" y="0"/><use xlink:href="#L1_1" x="0" y="0"/><use xlink:href="#L1_1" x="350" y="0"/><use xlink:href="#L1_1" x="-350" y="350"/><use xlink:href="#L1_1" x="0" y="350"/><use xlink:href="#L1_1" x="350" y="350"/></pattern><rect x="0" y="0" width="100%" height="100%" fill="url(#pattern_L1_1)"/></g><g fi:class="KUsePattern" opacity="0.49"><pattern id="pattern_L1_2" width="350" height="350" patternUnits="userSpaceOnUse"><use xlink:href="#L1_2" x="-350" y="-350"/><use xlink:href="#L1_2" x="0" y="-350"/><use xlink:href="#L1_2" x="350" y="-350"/><use xlink:href="#L1_2" x="-350" y="0"/><use xlink:href="#L1_2" x="0" y="0"/><use xlink:href="#L1_2" x="350" y="0"/><use xlink:href="#L1_2" x="-350" y="350"/><use xlink:href="#L1_2" x="0" y="350"/><use xlink:href="#L1_2" x="350" y="350"/></pattern><rect x="0" y="0" width="100%" height="100%" fill="url(#pattern_L1_2)"/></g><g fi:class="KUsePattern" opacity="0.39"><pattern id="pattern_L1_3" width="350" height="350" patternUnits="userSpaceOnUse"><use xlink:href="#L1_3" x="-350" y="-350"/><use xlink:href="#L1_3" x="0" y="-350"/><use xlink:href="#L1_3" x="350" y="-350"/><use xlink:href="#L1_3" x="-350" y="0"/><use xlink:href="#L1_3" x="0" y="0"/><use xlink:href="#L1_3" x="350" y="0"/><use xlink:href="#L1_3" x="-350" y="350"/><use xlink:href="#L1_3" x="0" y="350"/><use xlink:href="#L1_3" x="350" y="350"/></pattern><rect x="0" y="0" width="100%" height="100%" fill="url(#pattern_L1_3)"/></g><g fi:class="KUsePattern" opacity="0.45"><pattern id="pattern_L1_5" width="350" height="350" patternUnits="userSpaceOnUse"><use xlink:href="#L1_5" x="-350" y="-350"/><use xlink:href="#L1_5" x="0" y="-350"/><use xlink:href="#L1_5" x="350" y="-350"/><use xlink:href="#L1_5" x="-350" y="0"/><use xlink:href="#L1_5" x="0" y="0"/><use xlink:href="#L1_5" x="350" y="0"/><use xlink:href="#L1_5" x="-350" y="350"/><use xlink:href="#L1_5" x="0" y="350"/><use xlink:href="#L1_5" x="350" y="350"/></pattern><rect x="0" y="0" width="100%" height="100%" fill="url(#pattern_L1_5)"/></g><g fi:class="KUsePattern" opacity="0.44"><pattern id="pattern_L1_7" width="350" height="350" patternUnits="userSpaceOnUse"><use xlink:href="#L1_7" x="-350" y="-350"/><use xlink:href="#L1_7" x="0" y="-350"/><use xlink:href="#L1_7" x="350" y="-350"/><use xlink:href="#L1_7" x="-350" y="0"/><use xlink:href="#L1_7" x="0" y="0"/><use xlink:href="#L1_7" x="350" y="0"/><use xlink:href="#L1_7" x="-350" y="350"/><use xlink:href="#L1_7" x="0" y="350"/><use xlink:href="#L1_7" x="350" y="350"/></pattern><rect x="0" y="0" width="100%" height="100%" fill="url(#pattern_L1_7)"/></g><g fi:class="KUsePattern" opacity="0.35"><pattern id="pattern_L1_9" width="350" height="350" patternUnits="userSpaceOnUse"><use xlink:href="#L1_9" x="-350" y="-350"/><use xlink:href="#L1_9" x="0" y="-350"/><use xlink:href="#L1_9" x="350" y="-350"/><use xlink:href="#L1_9" x="-350" y="0"/><use xlink:href="#L1_9" x="0" y="0"/><use xlink:href="#L1_9" x="350" y="0"/><use xlink:href="#L1_9" x="-350" y="350"/><use xlink:href="#L1_9" x="0" y="350"/><use xlink:href="#L1_9" x="350" y="350"/></pattern><rect x="0" y="0" width="100%" height="100%" fill="url(#pattern_L1_9)"/></g><g fi:class="KUsePattern" opacity="0.43"><pattern id="pattern_L1_10" width="350" height="350" patternUnits="userSpaceOnUse"><use xlink:href="#L1_10" x="-350" y="-350"/><use xlink:href="#L1_10" x="0" y="-350"/><use xlink:href="#L1_10" x="350" y="-350"/><use xlink:href="#L1_10" x="-350" y="0"/><use xlink:href="#L1_10" x="0" y="0"/><use xlink:href="#L1_10" x="350" y="0"/><use xlink:href="#L1_10" x="-350" y="350"/><use xlink:href="#L1_10" x="0" y="350"/><use xlink:href="#L1_10" x="350" y="350"/></pattern><rect x="0" y="0" width="100%" height="100%" fill="url(#pattern_L1_10)"/></g><g fi:class="KUsePattern" opacity="0.53"><pattern id="pattern_L1_11" width="350" height="350" patternUnits="userSpaceOnUse"><use xlink:href="#L1_11" x="-350" y="-350"/><use xlink:href="#L1_11" x="0" y="-350"/><use xlink:href="#L1_11" x="350" y="-350"/><use xlink:href="#L1_11" x="-350" y="0"/><use xlink:href="#L1_11" x="0" y="0"/><use xlink:href="#L1_11" x="350" y="0"/><use xlink:href="#L1_11" x="-350" y="350"/><use xlink:href="#L1_11" x="0" y="350"/><use xlink:href="#L1_11" x="350" y="350"/></pattern><rect x="0" y="0" width="100%" height="100%" fill="url(#pattern_L1_11)"/></g><g fi:class="KUsePattern" opacity="0.61"><pattern id="pattern_L1_12" width="350" height="350" patternUnits="userSpaceOnUse"><use xlink:href="#L1_12" x="-350" y="-350"/><use xlink:href="#L1_12" x="0" y="-350"/><use xlink:href="#L1_12" x="350" y="-350"/><use xlink:href="#L1_12" x="-350" y="0"/><use xlink:href="#L1_12" x="0" y="0"/><use xlink:href="#L1_12" x="350" y="0"/><use xlink:href="#L1_12" x="-350" y="350"/><use xlink:href="#L1_12" x="0" y="350"/><use xlink:href="#L1_12" x="350" y="350"/></pattern><rect x="0" y="0" width="100%" height="100%" fill="url(#pattern_L1_12)"/></g><g fi:class="KUsePattern" opacity="0.42"><pattern id="pattern_L1_14" width="350" height="350" patternUnits="userSpaceOnUse"><use xlink:href="#L1_14" x="-350" y="-350"/><use xlink:href="#L1_14" x="0" y="-350"/><use xlink:href="#L1_14" x="350" y="-350"/><use xlink:href="#L1_14" x="-350" y="0"/><use xlink:href="#L1_14" x="0" y="0"/><use xlink:href="#L1_14" x="350" y="0"/><use xlink:href="#L1_14" x="-350" y="350"/><use xlink:href="#L1_14" x="0" y="350"/><use xlink:href="#L1_14" x="350" y="350"/></pattern><rect x="0" y="0" width="100%" height="100%" fill="url(#pattern_L1_14)"/></g><g fi:class="KUsePattern" opacity="0.4"><pattern id="pattern_L1_15" width="350" height="350" patternUnits="userSpaceOnUse"><use xlink:href="#L1_15" x="-350" y="-350"/><use xlink:href="#L1_15" x="0" y="-350"/><use xlink:href="#L1_15" x="350" y="-350"/><use xlink:href="#L1_15" x="-350" y="0"/><use xlink:href="#L1_15" x="0" y="0"/><use xlink:href="#L1_15" x="350" y="0"/><use xlink:href="#L1_15" x="-350" y="350"/><use xlink:href="#L1_15" x="0" y="350"/><use xlink:href="#L1_15" x="350" y="350"/></pattern><rect x="0" y="0" width="100%" height="100%" fill="url(#pattern_L1_15)"/></g><g fi:class="KUsePattern" opacity="0.4"><pattern id="pattern_L1_16" width="350" height="350" patternUnits="userSpaceOnUse"><use xlink:href="#L1_16" x="-350" y="-350"/><use xlink:href="#L1_16" x="0" y="-350"/><use xlink:href="#L1_16" x="350" y="-350"/><use xlink:href="#L1_16" x="-350" y="0"/><use xlink:href="#L1_16" x="0" y="0"/><use xlink:href="#L1_16" x="350" y="0"/><use xlink:href="#L1_16" x="-350" y="350"/><use xlink:href="#L1_16" x="0" y="350"/><use xlink:href="#L1_16" x="350" y="350"/></pattern><rect x="0" y="0" width="100%" height="100%" fill="url(#pattern_L1_16)"/></g><g fi:class="KUsePattern" opacity="0.62"><pattern id="pattern_L1_17" width="350" height="350" patternUnits="userSpaceOnUse"><use xlink:href="#L1_17" x="-350" y="-350"/><use xlink:href="#L1_17" x="0" y="-350"/><use xlink:href="#L1_17" x="350" y="-350"/><use xlink:href="#L1_17" x="-350" y="0"/><use xlink:href="#L1_17" x="0" y="0"/><use xlink:href="#L1_17" x="350" y="0"/><use xlink:href="#L1_17" x="-350" y="350"/><use xlink:href="#L1_17" x="0" y="350"/><use xlink:href="#L1_17" x="350" y="350"/></pattern><rect x="0" y="0" width="100%" height="100%" fill="url(#pattern_L1_17)"/></g><g fi:class="KUsePattern" opacity="0.35"><pattern id="pattern_L1_18" width="350" height="350" patternUnits="userSpaceOnUse"><use xlink:href="#L1_18" x="-350" y="-350"/><use xlink:href="#L1_18" x="0" y="-350"/><use xlink:href="#L1_18" x="350" y="-350"/><use xlink:href="#L1_18" x="-350" y="0"/><use xlink:href="#L1_18" x="0" y="0"/><use xlink:href="#L1_18" x="350" y="0"/><use xlink:href="#L1_18" x="-350" y="350"/><use xlink:href="#L1_18" x="0" y="350"/><use xlink:href="#L1_18" x="350" y="350"/></pattern><rect x="0" y="0" width="100%" height="100%" fill="url(#pattern_L1_18)"/></g><g fi:class="KUsePattern" opacity="0.37"><pattern id="pattern_L1_19" width="350" height="350" patternUnits="userSpaceOnUse"><use xlink:href="#L1_19" x="-350" y="-350"/><use xlink:href="#L1_19" x="0" y="-350"/><use xlink:href="#L1_19" x="350" y="-350"/><use xlink:href="#L1_19" x="-350" y="0"/><use xlink:href="#L1_19" x="0" y="0"/><use xlink:href="#L1_19" x="350" y="0"/><use xlink:href="#L1_19" x="-350" y="350"/><use xlink:href="#L1_19" x="0" y="350"/><use xlink:href="#L1_19" x="350" y="350"/></pattern><rect x="0" y="0" width="100%" height="100%" fill="url(#pattern_L1_19)"/></g><g fi:class="KUsePattern" opacity="0.41"><pattern id="pattern_L1_20" width="350" height="350" patternUnits="userSpaceOnUse"><use xlink:href="#L1_20" x="-350" y="-350"/><use xlink:href="#L1_20" x="0" y="-350"/><use xlink:href="#L1_20" x="350" y="-350"/><use xlink:href="#L1_20" x="-350" y="0"/><use xlink:href="#L1_20" x="0" y="0"/><use xlink:href="#L1_20" x="350" y="0"/><use xlink:href="#L1_20" x="-350" y="350"/><use xlink:href="#L1_20" x="0" y="350"/><use xlink:href="#L1_20" x="350" y="350"/></pattern><rect x="0" y="0" width="100%" height="100%" fill="url(#pattern_L1_20)"/></g></svg>